<?xml version="1.0" encoding="UTF-8" standalone="no"?><!DOCTYPE svg PUBLIC "-//W3C//DTD SVG 1.1//EN" "http://www.w3.org/Graphics/SVG/1.1/DTD/svg11.dtd"><svg width="100%" height="100%" viewBox="0 0 500 500" version="1.1" xmlns="http://www.w3.org/2000/svg" xmlns:xlink="http://www.w3.org/1999/xlink" xml:space="preserve" xmlns:serif="http://www.serif.com/" style="fill-rule:evenodd;clip-rule:evenodd;stroke-linecap:round;stroke-linejoin:round;stroke-miterlimit:1.5;"><path d="M343.75,109.375c0,-25.871 -21.004,-46.875 -46.875,-46.875l-93.75,0c-25.871,0 -46.875,21.004 -46.875,46.875l0,296.875c0,25.871 21.004,46.875 46.875,46.875l93.75,0c25.871,0 46.875,-21.004 46.875,-46.875l0,-296.875Z" style="fill:#f0d;"/><circle cx="296.875" cy="109.375" r="15.625" style="fill:#fff;stroke:#616171;stroke-width:7.83px;"/><path d="M364.617,98.638c1.029,-0.33 1.6,-1.43 1.271,-2.455l-1.184,-3.725c-0.325,-1.025 -1.425,-1.596 -2.45,-1.266l-33.508,10.646c-1.025,0.325 -1.596,1.425 -1.267,2.454l1.183,3.721c0.326,1.029 1.425,1.595 2.45,1.27l33.505,-10.645Z" style="fill:#721fd8;"/><path d="M361.942,143.946c1.021,0.35 2.133,-0.192 2.483,-1.213l1.271,-3.691c0.354,-1.021 -0.192,-2.134 -1.208,-2.484l-33.242,-11.45c-1.017,-0.354 -2.129,0.192 -2.479,1.209l-1.275,3.696c-0.35,1.016 0.191,2.129 1.212,2.479l33.238,11.454Z" style="fill:#721fd8;"/><path d="M341.8,59.521c0.704,-0.817 0.608,-2.054 -0.208,-2.754l-2.967,-2.546c-0.817,-0.7 -2.05,-0.609 -2.754,0.208l-22.9,26.675c-0.704,0.817 -0.608,2.054 0.208,2.754l2.967,2.546c0.817,0.7 2.05,0.609 2.754,-0.208l22.9,-26.675Z" style="fill:#721fd8;"/><path d="M116.667,252.336c0,35.505 31.031,64.331 69.253,64.331c38.222,0 85.083,-15.516 69.254,-64.331c-28.031,-15.968 -41.628,19.299 -69.254,19.299c-27.626,0 -53.094,-8.648 -69.253,-19.299Z"/><path d="M383.333,252.336c0,35.505 -31.031,64.331 -69.253,64.331c-38.222,0 -85.083,-15.516 -69.254,-64.331c28.031,-15.968 41.628,19.299 69.254,19.299c27.626,0 53.094,-8.648 69.253,-19.299Z"/><circle cx="204.167" cy="170.833" r="37.5" style="fill:none;stroke:#000;stroke-width:3.96px;"/><circle cx="295.833" cy="170.833" r="37.5" style="fill:none;stroke:#000;stroke-width:3.96px;"/></svg>