<?xml version="1.0" encoding="UTF-8" standalone="no"?><!DOCTYPE svg PUBLIC "-//W3C//DTD SVG 1.1//EN" "http://www.w3.org/Graphics/SVG/1.1/DTD/svg11.dtd"><svg width="100%" height="100%" viewBox="0 0 120 120" version="1.1" xmlns="http://www.w3.org/2000/svg" xmlns:xlink="http://www.w3.org/1999/xlink" xml:space="preserve" xmlns:serif="http://www.serif.com/" style="fill-rule:evenodd;clip-rule:evenodd;stroke-linecap:round;stroke-linejoin:round;stroke-miterlimit:1.5;"><path d="M82.5,26.25c0,-6.209 -5.041,-11.25 -11.25,-11.25l-22.5,0c-6.209,0 -11.25,5.041 -11.25,11.25l0,71.25c0,6.209 5.041,11.25 11.25,11.25l22.5,0c6.209,0 11.25,-5.041 11.25,-11.25l0,-71.25Z"/><circle cx="71.25" cy="26.25" r="3.75" style="fill:#fff;stroke:#616171;stroke-width:1.88px;"/><path d="M87.508,23.673c0.247,-0.079 0.384,-0.343 0.305,-0.589l-0.284,-0.894c-0.078,-0.246 -0.342,-0.383 -0.588,-0.304l-8.042,2.555c-0.246,0.078 -0.383,0.342 -0.304,0.589l0.284,0.893c0.078,0.247 0.342,0.383 0.588,0.305l8.041,-2.555Z" style="fill:#fff;"/><path d="M86.866,34.547c0.245,0.084 0.512,-0.046 0.596,-0.291l0.305,-0.886c0.085,-0.245 -0.046,-0.512 -0.29,-0.596l-7.978,-2.748c-0.244,-0.085 -0.511,0.046 -0.595,0.29l-0.306,0.887c-0.084,0.244 0.046,0.511 0.291,0.595l7.977,2.749Z" style="fill:#fff;"/><path d="M82.032,14.285c0.169,-0.196 0.146,-0.493 -0.05,-0.661l-0.712,-0.611c-0.196,-0.168 -0.492,-0.146 -0.661,0.05l-5.496,6.402c-0.169,0.196 -0.146,0.493 0.05,0.661l0.712,0.611c0.196,0.168 0.492,0.146 0.661,-0.05l5.496,-6.402Z" style="fill:#fff;"/></svg>